# xmcd
#
# Track frame offsets:
#	150
#	15266
#	29493
#	45598
#	66582
#	82011
#	99595
#	113542
#	132134
#	145085
#	174147
#	191745
#	209757
#
# Disc length: 3008 seconds
# Revision: 0
# Processed by: cddbd v1.5.2PL0 Copyright (c) Steve Scherf et al.
# Submitted via: dBpowerAMP V12.0
#
DISCID=b00bbe0d
DTITLE=Catherine Britt - Always Never Enough
DYEAR=2012
DGENRE=Country
TTITLE0=Always Never Enough
TTITLE1=Charlestown Road
TTITLE2=Addicted To The Pain
TTITLE3=Sally Bones
TTITLE4=There's Gotta Be More
TTITLE5=I'm Your Biggest Fan
TTITLE6=A Good Few Years
TTITLE7=Troubled Man (Featuring Tim Rogers)
TTITLE8=Mind Your Own Business
TTITLE9=Our Town
TTITLE10=Thank God There Is A Train
TTITLE11=She Ain't Going Nowhere (Featuring Guy Clark)
TTITLE12=All I Recall
EXTD=
EXTT0=
EXTT1=
EXTT2=
EXTT3=
EXTT4=
EXTT5=
EXTT6=
EXTT7=
EXTT8=
EXTT9=
EXTT10=
EXTT11=
EXTT12=
PLAYORDER=
